<?xml version="1.0" encoding="utf-8"?>
<!-- Generator: Adobe Illustrator 24.1.0, SVG Export Plug-In . SVG Version: 6.00 Build 0)  -->
<svg version="1.1" id="Layer_1" xmlns="http://www.w3.org/2000/svg" xmlns:xlink="http://www.w3.org/1999/xlink" x="0px" y="0px"
	 viewBox="0 0 149 52" style="enable-background:new 0 0 149 52;" xml:space="preserve">
<style type="text/css">
	.st0{fill:#F6921E;}
	.st1{fill:#485756;}
	.st2{fill:#FFFFFF;}
</style>
<g>
	<path class="st0" d="M46.57,33.28c-0.81-0.87-1.18-1.98-1.02-3.13c0.14-1.06,0.68-1.98,1.56-2.64c0.54-0.42,1.08-0.66,1.56-0.79
		v-1.07c-0.01,0-0.01-0.01-0.02-0.01c-1.57-1.36-2.4-3.14-2.4-5.13c0-1.75,0.53-3.26,1.58-4.47c0.26-0.3,0.54-0.57,0.84-0.83V0.49H0
		v48.67h48.67V34.89c-0.79-0.45-1.49-0.98-2.07-1.58L46.57,33.28z"/>
	<g>
		<path class="st1" d="M60.33,24.53C59.34,24,58,23.58,56.3,23.26c-1.25-0.23-2.19-0.48-2.84-0.75c-0.65-0.27-1.09-0.58-1.33-0.94
			c-0.24-0.35-0.36-0.74-0.36-1.17c0-0.7,0.35-1.25,1.05-1.65c0.7-0.4,1.6-0.6,2.69-0.6c0.91,0,1.7,0.12,2.38,0.36
			c0.68,0.24,1.3,0.65,1.87,1.24c0.32,0.29,0.7,0.48,1.16,0.56c0.45,0.08,0.84,0.01,1.16-0.22c0.36-0.25,0.56-0.56,0.58-0.92
			c0.02-0.36-0.1-0.71-0.37-1.05c-0.68-0.86-1.59-1.54-2.74-2.02c-1.14-0.49-2.46-0.73-3.96-0.73c-1.18,0-2.29,0.19-3.35,0.56
			c-1.05,0.37-1.91,0.94-2.57,1.7c-0.66,0.76-0.99,1.72-0.99,2.87c0,1.29,0.52,2.39,1.56,3.3c1.04,0.91,2.71,1.58,5,2.01
			c1.77,0.32,3,0.73,3.71,1.24c0.7,0.51,1.05,1.13,1.05,1.85c-0.02,0.73-0.39,1.33-1.1,1.8c-0.71,0.48-1.78,0.71-3.21,0.71
			c-1.07,0-2.03-0.18-2.89-0.54c-0.86-0.36-1.52-0.79-1.97-1.29c-0.27-0.32-0.61-0.5-1.02-0.54c-0.41-0.05-0.82,0.09-1.22,0.41
			c-0.36,0.27-0.57,0.62-0.63,1.04c-0.06,0.42,0.07,0.8,0.39,1.14c0.77,0.79,1.82,1.43,3.16,1.9c1.34,0.48,2.75,0.71,4.25,0.71
			c1.56,0,2.88-0.24,3.96-0.71c1.08-0.48,1.9-1.13,2.48-1.95c0.58-0.83,0.87-1.77,0.87-2.84c0-0.88-0.21-1.67-0.63-2.36
			C62.02,25.68,61.32,25.07,60.33,24.53z"/>
		<path class="st1" d="M69.53,15.51c-0.48,0-0.86,0.15-1.16,0.44c-0.29,0.29-0.44,0.68-0.44,1.16v15.4c0,0.48,0.15,0.86,0.44,1.16
			c0.29,0.29,0.68,0.44,1.16,0.44s0.86-0.15,1.16-0.44c0.29-0.29,0.44-0.68,0.44-1.16V17.1c0-0.48-0.15-0.86-0.44-1.16
			C70.39,15.65,70,15.51,69.53,15.51z"/>
		<path class="st1" d="M72.93,5.99c-0.43,0-0.8,0.16-1.12,0.48l-3.5,3.5c-0.25,0.27-0.37,0.62-0.37,1.05c0,0.45,0.15,0.83,0.46,1.14
			c0.31,0.31,0.69,0.46,1.14,0.46c0.45,0,0.82-0.15,1.09-0.44l3.47-3.47c0.18-0.14,0.3-0.3,0.36-0.49c0.06-0.19,0.08-0.39,0.08-0.59
			c0-0.45-0.15-0.84-0.44-1.16C73.79,6.15,73.4,5.99,72.93,5.99z"/>
		<path class="st1" d="M96.78,15.71c-0.41-0.18-0.8-0.21-1.19-0.08c-0.39,0.12-0.67,0.37-0.85,0.73l-6.06,13.2l-6.12-13.2
			c-0.18-0.36-0.45-0.61-0.82-0.73c-0.36-0.12-0.73-0.1-1.09,0.08c-0.41,0.18-0.68,0.45-0.82,0.8c-0.14,0.35-0.12,0.71,0.03,1.07
			l7.34,15.47c0.34,0.68,0.84,1.02,1.5,1.02c0.66,0,1.14-0.34,1.46-1.02l7.28-15.5c0.18-0.34,0.2-0.69,0.07-1.05
			C97.39,16.13,97.14,15.87,96.78,15.71z"/>
		<path class="st1" d="M113.64,16.61c-1.41-0.83-3-1.24-4.79-1.24c-1.77,0-3.36,0.41-4.78,1.24c-1.42,0.83-2.54,1.95-3.37,3.37
			c-0.83,1.42-1.24,3.03-1.24,4.84c0,1.79,0.39,3.4,1.16,4.83c0.77,1.43,1.82,2.55,3.16,3.37c1.34,0.82,2.84,1.22,4.52,1.22
			c1.68,0,3.17-0.4,4.47-1.21c0.88-0.54,1.63-1.22,2.26-2.02v1.53c0,0.45,0.15,0.83,0.46,1.14c0.31,0.31,0.69,0.46,1.14,0.46
			c0.48,0,0.86-0.15,1.16-0.46c0.29-0.31,0.44-0.69,0.44-1.14v-7.72c0-1.79-0.41-3.4-1.24-4.83
			C116.16,18.57,115.05,17.44,113.64,16.61z M114.34,28.19c-0.56,1-1.3,1.78-2.24,2.36c-0.94,0.58-2.02,0.87-3.25,0.87
			c-1.18,0-2.25-0.29-3.21-0.87c-0.96-0.58-1.72-1.37-2.28-2.36c-0.56-1-0.83-2.12-0.83-3.37c0-1.27,0.28-2.4,0.83-3.4
			c0.56-1,1.31-1.78,2.28-2.36c0.96-0.58,2.03-0.87,3.21-0.87c1.22,0,2.31,0.29,3.25,0.87c0.94,0.58,1.69,1.37,2.24,2.36
			c0.56,1,0.83,2.13,0.83,3.4C115.17,26.07,114.9,27.19,114.34,28.19z"/>
		<path class="st1" d="M128.53,30.98h-0.85c-0.54,0-0.99-0.28-1.33-0.85c-0.34-0.57-0.51-1.29-0.51-2.18V9.12
			c0-0.48-0.14-0.86-0.43-1.14c-0.28-0.28-0.66-0.42-1.14-0.42s-0.86,0.14-1.14,0.42c-0.28,0.28-0.42,0.66-0.42,1.14v18.83
			c0,1.2,0.21,2.26,0.63,3.18c0.42,0.92,1,1.64,1.75,2.18c0.75,0.53,1.61,0.8,2.58,0.8h0.2c0.59,0,1.08-0.14,1.46-0.42
			c0.39-0.28,0.58-0.66,0.58-1.14c0-0.48-0.12-0.86-0.37-1.14C129.3,31.12,128.96,30.98,128.53,30.98z"/>
		<path class="st1" d="M148.59,25.52c0.27-0.26,0.41-0.59,0.41-1c0-1.79-0.34-3.37-1.02-4.74c-0.68-1.37-1.66-2.45-2.94-3.23
			c-1.28-0.78-2.79-1.17-4.54-1.17c-1.77,0-3.34,0.4-4.71,1.21c-1.37,0.8-2.44,1.92-3.21,3.33c-0.77,1.42-1.16,3.05-1.16,4.91
			c0,1.84,0.41,3.46,1.22,4.88c0.82,1.42,1.95,2.53,3.4,3.33c1.45,0.8,3.1,1.21,4.96,1.21c1.04,0,2.14-0.2,3.3-0.6
			c1.16-0.4,2.11-0.9,2.86-1.51c0.36-0.27,0.53-0.6,0.51-0.97c-0.02-0.37-0.22-0.72-0.58-1.04c-0.27-0.23-0.59-0.33-0.95-0.32
			c-0.36,0.01-0.7,0.13-1.02,0.36c-0.48,0.36-1.09,0.68-1.85,0.95c-0.76,0.27-1.51,0.41-2.26,0.41c-1.31,0-2.48-0.29-3.48-0.87
			c-1.01-0.58-1.8-1.37-2.38-2.38c-0.41-0.72-0.67-1.5-0.79-2.36h13.18C147.97,25.91,148.32,25.78,148.59,25.52z M137.15,18.96
			c0.94-0.58,2.06-0.87,3.35-0.87c1.18,0,2.19,0.27,3.03,0.82c0.84,0.54,1.48,1.29,1.94,2.23c0.33,0.67,0.53,1.42,0.62,2.23h-11.69
			c0.12-0.72,0.32-1.39,0.62-2.01C135.5,20.33,136.21,19.54,137.15,18.96z"/>
	</g>
	<g>
		<path class="st1" d="M61.64,42.6c0.13,0,0.24-0.04,0.33-0.12c0.08-0.08,0.13-0.18,0.13-0.3c0-0.13-0.04-0.23-0.13-0.31
			c-0.08-0.08-0.19-0.12-0.33-0.12h-4.4c-0.13,0-0.25,0.04-0.33,0.13c-0.09,0.09-0.13,0.2-0.13,0.33v6.59
			c0,0.13,0.04,0.25,0.13,0.33c0.09,0.09,0.2,0.13,0.33,0.13h4.4c0.13,0,0.24-0.04,0.33-0.12c0.08-0.08,0.13-0.18,0.13-0.31
			c0-0.12-0.04-0.22-0.13-0.3c-0.08-0.08-0.19-0.12-0.33-0.12h-3.94v-2.5h2.85c0.13,0,0.24-0.04,0.33-0.12
			c0.08-0.08,0.13-0.18,0.13-0.3c0-0.13-0.04-0.23-0.13-0.31c-0.08-0.08-0.19-0.12-0.33-0.12h-2.85V42.6H61.64z"/>
		<path class="st1" d="M64.84,48.37H64.6c-0.15,0-0.28-0.08-0.38-0.24c-0.1-0.16-0.14-0.37-0.14-0.62v-5.33
			c0-0.13-0.04-0.24-0.12-0.32c-0.08-0.08-0.19-0.12-0.32-0.12s-0.24,0.04-0.32,0.12c-0.08,0.08-0.12,0.19-0.12,0.32v5.33
			c0,0.34,0.06,0.64,0.18,0.9c0.12,0.26,0.28,0.47,0.5,0.62c0.21,0.15,0.46,0.23,0.73,0.23h0.06c0.17,0,0.3-0.04,0.41-0.12
			c0.11-0.08,0.16-0.19,0.16-0.32s-0.04-0.24-0.11-0.32C65.06,48.41,64.96,48.37,64.84,48.37z"/>
		<path class="st1" d="M73.05,44.31c-0.4-0.23-0.86-0.35-1.37-0.35c-0.49,0-0.94,0.12-1.34,0.35c-0.4,0.23-0.71,0.55-0.95,0.95
			c-0.23,0.4-0.35,0.86-0.36,1.37v4.43c0,0.13,0.04,0.24,0.13,0.33c0.08,0.08,0.19,0.12,0.33,0.12c0.13,0,0.24-0.04,0.33-0.12
			c0.08-0.08,0.13-0.19,0.13-0.33v-2.67c0.22,0.28,0.49,0.51,0.82,0.67c0.33,0.16,0.69,0.25,1.09,0.25c0.47,0,0.9-0.12,1.28-0.35
			c0.38-0.23,0.68-0.55,0.9-0.95c0.22-0.4,0.33-0.86,0.33-1.37c0-0.51-0.12-0.97-0.35-1.37C73.77,44.86,73.45,44.54,73.05,44.31z
			 M73.24,47.58c-0.16,0.28-0.37,0.5-0.64,0.67c-0.27,0.16-0.57,0.25-0.91,0.25c-0.34,0-0.64-0.08-0.91-0.24
			c-0.27-0.16-0.48-0.38-0.63-0.67c-0.15-0.29-0.23-0.6-0.23-0.96c0-0.36,0.08-0.68,0.23-0.96c0.15-0.28,0.37-0.51,0.63-0.67
			c0.27-0.16,0.57-0.25,0.91-0.25c0.34,0,0.64,0.08,0.91,0.25c0.27,0.16,0.48,0.39,0.64,0.67c0.16,0.28,0.24,0.6,0.24,0.96
			C73.48,46.98,73.4,47.3,73.24,47.58z"/>
		<path class="st1" d="M79.55,44.3c-0.4-0.23-0.85-0.34-1.37-0.34c-0.51,0-0.97,0.11-1.37,0.34c-0.4,0.23-0.72,0.54-0.94,0.94
			c-0.23,0.4-0.34,0.86-0.34,1.39c0,0.52,0.11,0.98,0.34,1.38c0.23,0.4,0.54,0.72,0.94,0.94c0.4,0.23,0.86,0.34,1.37,0.34
			c0.52,0,0.98-0.11,1.38-0.34c0.4-0.23,0.71-0.54,0.94-0.94c0.23-0.4,0.34-0.86,0.34-1.38c0-0.53-0.12-0.99-0.35-1.39
			C80.27,44.84,79.95,44.52,79.55,44.3z M79.75,47.6c-0.15,0.28-0.37,0.5-0.63,0.66c-0.27,0.16-0.58,0.24-0.92,0.24
			c-0.35,0-0.65-0.08-0.92-0.24c-0.27-0.16-0.48-0.38-0.63-0.66c-0.15-0.28-0.23-0.6-0.23-0.97c0-0.37,0.08-0.69,0.23-0.97
			c0.15-0.28,0.37-0.5,0.63-0.66c0.27-0.16,0.58-0.24,0.92-0.24c0.35,0,0.65,0.08,0.92,0.24c0.27,0.16,0.48,0.38,0.63,0.66
			c0.15,0.28,0.23,0.61,0.23,0.97C79.98,46.99,79.9,47.32,79.75,47.6z"/>
		<path class="st1" d="M86.89,41.74c-0.13,0-0.24,0.04-0.32,0.12c-0.09,0.08-0.13,0.19-0.13,0.33v2.67
			c-0.21-0.28-0.48-0.5-0.81-0.67c-0.33-0.16-0.69-0.25-1.09-0.25c-0.47,0-0.9,0.12-1.28,0.35c-0.38,0.23-0.68,0.55-0.89,0.95
			c-0.22,0.4-0.33,0.85-0.33,1.36c0,0.51,0.12,0.96,0.35,1.37c0.23,0.4,0.55,0.72,0.95,0.96c0.4,0.23,0.85,0.35,1.35,0.35
			s0.95-0.12,1.35-0.35c0.4-0.23,0.72-0.55,0.95-0.95c0.23-0.4,0.35-0.86,0.35-1.37V42.2c0-0.13-0.04-0.24-0.13-0.33
			C87.14,41.79,87.03,41.74,86.89,41.74z M86.24,47.58c-0.16,0.29-0.37,0.51-0.63,0.67c-0.27,0.16-0.57,0.25-0.92,0.25
			c-0.33,0-0.64-0.08-0.91-0.25c-0.27-0.16-0.49-0.39-0.64-0.67c-0.16-0.29-0.24-0.6-0.24-0.96c0-0.36,0.08-0.68,0.24-0.96
			c0.16-0.28,0.37-0.5,0.64-0.66c0.27-0.16,0.58-0.25,0.91-0.25c0.35,0,0.65,0.08,0.92,0.25c0.27,0.16,0.48,0.38,0.63,0.66
			c0.16,0.28,0.24,0.6,0.24,0.96C86.48,46.97,86.4,47.29,86.24,47.58z"/>
		<path class="st1" d="M92.66,44.29c-0.36-0.22-0.79-0.33-1.28-0.33c-0.5,0-0.94,0.11-1.33,0.34c-0.39,0.23-0.69,0.54-0.91,0.94
			c-0.22,0.4-0.33,0.86-0.33,1.39c0,0.52,0.12,0.98,0.35,1.38c0.23,0.4,0.55,0.72,0.96,0.94c0.41,0.23,0.88,0.34,1.4,0.34
			c0.29,0,0.61-0.06,0.93-0.17c0.33-0.11,0.6-0.25,0.81-0.43c0.1-0.08,0.15-0.17,0.14-0.27c-0.01-0.11-0.06-0.2-0.16-0.29
			c-0.08-0.06-0.17-0.09-0.27-0.09c-0.1,0-0.2,0.04-0.29,0.1c-0.13,0.1-0.31,0.19-0.52,0.27c-0.21,0.08-0.43,0.12-0.64,0.12
			c-0.37,0-0.7-0.08-0.99-0.25c-0.29-0.16-0.51-0.39-0.67-0.67c-0.12-0.2-0.19-0.43-0.22-0.67h3.73c0.12,0,0.22-0.04,0.3-0.11
			c0.08-0.07,0.12-0.17,0.12-0.28c0-0.51-0.1-0.95-0.29-1.34C93.3,44.81,93.02,44.51,92.66,44.29z M90.43,44.97
			c0.27-0.16,0.58-0.25,0.95-0.25c0.33,0,0.62,0.08,0.86,0.23c0.24,0.15,0.42,0.36,0.55,0.63c0.09,0.19,0.15,0.4,0.18,0.63h-3.3
			c0.03-0.2,0.09-0.39,0.17-0.57C89.96,45.36,90.16,45.13,90.43,44.97z"/>
		<path class="st1" d="M98.34,44.1c-0.18-0.11-0.45-0.17-0.8-0.17c-0.38,0-0.73,0.09-1.04,0.27c-0.23,0.13-0.42,0.29-0.58,0.49
			v-0.26c0-0.15-0.04-0.26-0.11-0.33c-0.07-0.07-0.18-0.11-0.33-0.11c-0.14,0-0.25,0.04-0.33,0.12s-0.12,0.19-0.12,0.33v4.38
			c0,0.15,0.04,0.26,0.12,0.33c0.08,0.07,0.19,0.11,0.33,0.11c0.15,0,0.26-0.04,0.33-0.12c0.07-0.08,0.11-0.19,0.11-0.33v-2.83
			c0-0.3,0.09-0.55,0.27-0.75c0.18-0.2,0.42-0.34,0.74-0.42c0.31-0.08,0.67-0.09,1.06-0.03c0.09,0.02,0.17,0.03,0.25,0.02
			c0.08-0.01,0.14-0.03,0.2-0.08c0.05-0.04,0.09-0.11,0.12-0.2C98.59,44.36,98.52,44.22,98.34,44.1z"/>
		<path class="st1" d="M107.02,41.74c-0.13,0-0.24,0.04-0.32,0.12c-0.09,0.08-0.13,0.19-0.13,0.33v2.67
			c-0.21-0.28-0.48-0.5-0.81-0.67c-0.33-0.16-0.69-0.25-1.09-0.25c-0.47,0-0.9,0.12-1.28,0.35c-0.38,0.23-0.68,0.55-0.89,0.95
			c-0.22,0.4-0.33,0.85-0.33,1.36c0,0.51,0.12,0.96,0.35,1.37c0.23,0.4,0.55,0.72,0.95,0.96c0.4,0.23,0.85,0.35,1.35,0.35
			s0.95-0.12,1.35-0.35c0.4-0.23,0.72-0.55,0.95-0.95c0.23-0.4,0.35-0.86,0.35-1.37V42.2c0-0.13-0.04-0.24-0.12-0.33
			C107.26,41.79,107.16,41.74,107.02,41.74z M106.37,47.58c-0.16,0.29-0.37,0.51-0.63,0.67c-0.27,0.16-0.57,0.25-0.92,0.25
			c-0.33,0-0.64-0.08-0.91-0.25c-0.27-0.16-0.49-0.39-0.64-0.67c-0.16-0.29-0.24-0.6-0.24-0.96c0-0.36,0.08-0.68,0.24-0.96
			c0.16-0.28,0.37-0.5,0.64-0.66c0.27-0.16,0.58-0.25,0.91-0.25c0.35,0,0.65,0.08,0.92,0.25c0.27,0.16,0.48,0.38,0.63,0.66
			c0.16,0.28,0.24,0.6,0.24,0.96C106.61,46.97,106.53,47.29,106.37,47.58z"/>
		<path class="st1" d="M112.79,44.29c-0.36-0.22-0.79-0.33-1.28-0.33c-0.5,0-0.94,0.11-1.33,0.34c-0.39,0.23-0.69,0.54-0.91,0.94
			c-0.22,0.4-0.33,0.86-0.33,1.39c0,0.52,0.12,0.98,0.35,1.38c0.23,0.4,0.55,0.72,0.96,0.94c0.41,0.23,0.88,0.34,1.4,0.34
			c0.29,0,0.61-0.06,0.93-0.17c0.33-0.11,0.6-0.25,0.81-0.43c0.1-0.08,0.15-0.17,0.14-0.27c-0.01-0.11-0.06-0.2-0.16-0.29
			c-0.08-0.06-0.17-0.09-0.27-0.09c-0.1,0-0.2,0.04-0.29,0.1c-0.13,0.1-0.31,0.19-0.52,0.27c-0.21,0.08-0.43,0.12-0.64,0.12
			c-0.37,0-0.7-0.08-0.99-0.25c-0.29-0.16-0.51-0.39-0.67-0.67c-0.12-0.2-0.19-0.43-0.22-0.67h3.73c0.12,0,0.22-0.04,0.3-0.11
			c0.08-0.07,0.12-0.17,0.12-0.28c0-0.51-0.1-0.95-0.29-1.34C113.43,44.81,113.15,44.51,112.79,44.29z M110.56,44.97
			c0.27-0.16,0.58-0.25,0.95-0.25c0.33,0,0.62,0.08,0.86,0.23c0.24,0.15,0.42,0.36,0.55,0.63c0.09,0.19,0.15,0.4,0.18,0.63h-3.3
			c0.03-0.2,0.09-0.39,0.17-0.57C110.09,45.36,110.29,45.13,110.56,44.97z"/>
		<path class="st1" d="M121.34,44.18c-0.32-0.15-0.67-0.22-1.05-0.22c-0.5,0-0.94,0.11-1.33,0.34c-0.39,0.23-0.69,0.54-0.91,0.95
			c-0.22,0.4-0.33,0.87-0.33,1.38c0,0.51,0.11,0.96,0.34,1.36c0.23,0.4,0.54,0.72,0.94,0.95c0.4,0.23,0.85,0.35,1.37,0.35
			c0.69,0,1.27-0.21,1.73-0.64c0.08-0.08,0.12-0.17,0.11-0.27c-0.01-0.11-0.07-0.2-0.17-0.28c-0.08-0.06-0.17-0.09-0.26-0.09
			c-0.1,0.01-0.2,0.05-0.29,0.12c-0.15,0.13-0.31,0.22-0.5,0.28c-0.18,0.06-0.39,0.09-0.62,0.09c-0.35,0-0.66-0.08-0.93-0.25
			c-0.27-0.16-0.47-0.38-0.63-0.66s-0.23-0.6-0.23-0.96c0-0.37,0.07-0.7,0.22-0.98c0.14-0.28,0.34-0.5,0.6-0.66
			c0.26-0.16,0.55-0.24,0.89-0.24c0.5,0,0.92,0.18,1.25,0.55c0.08,0.08,0.17,0.13,0.27,0.15c0.1,0.02,0.19,0,0.27-0.06
			c0.11-0.08,0.17-0.17,0.2-0.27c0.02-0.1-0.01-0.2-0.09-0.29C121.94,44.55,121.65,44.32,121.34,44.18z"/>
		<path class="st1" d="M127.04,44.1c-0.18-0.11-0.45-0.17-0.8-0.17c-0.38,0-0.73,0.09-1.04,0.27c-0.23,0.13-0.42,0.29-0.58,0.49
			v-0.26c0-0.15-0.04-0.26-0.11-0.33c-0.07-0.07-0.18-0.11-0.33-0.11c-0.14,0-0.25,0.04-0.33,0.12s-0.12,0.19-0.12,0.33v4.38
			c0,0.15,0.04,0.26,0.12,0.33c0.08,0.07,0.19,0.11,0.33,0.11c0.15,0,0.26-0.04,0.33-0.12c0.07-0.08,0.11-0.19,0.11-0.33v-2.83
			c0-0.3,0.09-0.55,0.27-0.75c0.18-0.2,0.42-0.34,0.74-0.42c0.31-0.08,0.67-0.09,1.06-0.03c0.09,0.02,0.17,0.03,0.25,0.02
			c0.08-0.01,0.14-0.03,0.2-0.08c0.05-0.04,0.09-0.11,0.12-0.2C127.29,44.36,127.22,44.22,127.04,44.1z"/>
		<path class="st1" d="M131.52,44.29c-0.36-0.22-0.79-0.33-1.28-0.33c-0.5,0-0.94,0.11-1.33,0.34c-0.39,0.23-0.69,0.54-0.91,0.94
			c-0.22,0.4-0.33,0.86-0.33,1.39c0,0.52,0.12,0.98,0.35,1.38c0.23,0.4,0.55,0.72,0.96,0.94c0.41,0.23,0.88,0.34,1.4,0.34
			c0.29,0,0.61-0.06,0.93-0.17c0.33-0.11,0.6-0.25,0.81-0.43c0.1-0.08,0.15-0.17,0.14-0.27c-0.01-0.11-0.06-0.2-0.16-0.29
			c-0.08-0.06-0.17-0.09-0.27-0.09c-0.1,0-0.2,0.04-0.29,0.1c-0.13,0.1-0.31,0.19-0.52,0.27c-0.21,0.08-0.43,0.12-0.64,0.12
			c-0.37,0-0.7-0.08-0.99-0.25c-0.29-0.16-0.51-0.39-0.67-0.67c-0.12-0.2-0.19-0.43-0.22-0.67h3.73c0.12,0,0.22-0.04,0.3-0.11
			c0.08-0.07,0.12-0.17,0.12-0.28c0-0.51-0.1-0.95-0.29-1.34C132.16,44.81,131.88,44.51,131.52,44.29z M129.29,44.97
			c0.27-0.16,0.58-0.25,0.95-0.25c0.33,0,0.62,0.08,0.86,0.23c0.24,0.15,0.42,0.36,0.55,0.63c0.09,0.19,0.15,0.4,0.18,0.63h-3.3
			c0.03-0.2,0.09-0.39,0.17-0.57C128.82,45.36,129.02,45.13,129.29,44.97z"/>
		<path class="st1" d="M137.06,44.18c-0.32-0.15-0.67-0.22-1.05-0.22c-0.5,0-0.94,0.11-1.33,0.34c-0.39,0.23-0.69,0.54-0.91,0.95
			c-0.22,0.4-0.33,0.87-0.33,1.38c0,0.51,0.11,0.96,0.34,1.36c0.23,0.4,0.54,0.72,0.94,0.95c0.4,0.23,0.85,0.35,1.37,0.35
			c0.69,0,1.27-0.21,1.73-0.64c0.08-0.08,0.12-0.17,0.11-0.27c-0.01-0.11-0.07-0.2-0.17-0.28c-0.08-0.06-0.17-0.09-0.26-0.09
			c-0.1,0.01-0.2,0.05-0.29,0.12c-0.15,0.13-0.31,0.22-0.5,0.28c-0.18,0.06-0.39,0.09-0.62,0.09c-0.35,0-0.66-0.08-0.93-0.25
			c-0.27-0.16-0.47-0.38-0.63-0.66c-0.15-0.28-0.23-0.6-0.23-0.96c0-0.37,0.07-0.7,0.22-0.98c0.14-0.28,0.34-0.5,0.6-0.66
			c0.26-0.16,0.55-0.24,0.89-0.24c0.5,0,0.92,0.18,1.25,0.55c0.08,0.08,0.17,0.13,0.27,0.15c0.1,0.02,0.19,0,0.27-0.06
			c0.11-0.08,0.17-0.17,0.2-0.27c0.02-0.1-0.01-0.2-0.09-0.29C137.66,44.55,137.38,44.32,137.06,44.18z"/>
		<path class="st1" d="M143.04,44.29c-0.36-0.22-0.79-0.33-1.28-0.33c-0.5,0-0.94,0.11-1.33,0.34c-0.39,0.23-0.69,0.54-0.91,0.94
			c-0.22,0.4-0.33,0.86-0.33,1.39c0,0.52,0.12,0.98,0.35,1.38c0.23,0.4,0.55,0.72,0.96,0.94c0.41,0.23,0.88,0.34,1.4,0.34
			c0.29,0,0.61-0.06,0.93-0.17c0.33-0.11,0.6-0.25,0.81-0.43c0.1-0.08,0.15-0.17,0.14-0.27c-0.01-0.11-0.06-0.2-0.16-0.29
			c-0.08-0.06-0.17-0.09-0.27-0.09c-0.1,0-0.2,0.04-0.29,0.1c-0.13,0.1-0.31,0.19-0.52,0.27c-0.21,0.08-0.43,0.12-0.64,0.12
			c-0.37,0-0.7-0.08-0.99-0.25c-0.29-0.16-0.51-0.39-0.67-0.67c-0.12-0.2-0.19-0.43-0.22-0.67h3.73c0.12,0,0.22-0.04,0.3-0.11
			c0.08-0.07,0.12-0.17,0.12-0.28c0-0.51-0.1-0.95-0.29-1.34C143.68,44.81,143.41,44.51,143.04,44.29z M140.81,44.97
			c0.27-0.16,0.58-0.25,0.95-0.25c0.33,0,0.62,0.08,0.86,0.23c0.24,0.15,0.42,0.36,0.55,0.63c0.09,0.19,0.15,0.4,0.18,0.63h-3.3
			c0.03-0.2,0.09-0.39,0.17-0.57C140.34,45.36,140.55,45.13,140.81,44.97z"/>
		<path class="st1" d="M148.72,44.1c-0.18-0.11-0.45-0.17-0.8-0.17c-0.38,0-0.73,0.09-1.04,0.27c-0.23,0.13-0.42,0.29-0.58,0.49
			v-0.26c0-0.15-0.04-0.26-0.11-0.33c-0.07-0.07-0.18-0.11-0.33-0.11c-0.14,0-0.25,0.04-0.33,0.12c-0.08,0.08-0.12,0.19-0.12,0.33
			v4.38c0,0.15,0.04,0.26,0.12,0.33c0.08,0.07,0.19,0.11,0.33,0.11c0.15,0,0.26-0.04,0.33-0.12c0.07-0.08,0.11-0.19,0.11-0.33v-2.83
			c0-0.3,0.09-0.55,0.27-0.75c0.18-0.2,0.42-0.34,0.74-0.42c0.31-0.08,0.67-0.09,1.06-0.03c0.09,0.02,0.17,0.03,0.25,0.02
			c0.08-0.01,0.14-0.03,0.2-0.08c0.05-0.04,0.09-0.11,0.12-0.2C148.97,44.36,148.9,44.22,148.72,44.1z"/>
	</g>
	<g>
		<path class="st2" d="M33.55,16.58c-1.63,0-3.11,0.49-4.37,1.37v-2.29l-3.9,0.94v21.5l3.89-0.89v-5.5
			c1.25,0.87,2.76,1.37,4.38,1.37c4.38,0,7.93-3.69,7.93-8.25C41.48,20.28,37.93,16.58,33.55,16.58z M33.3,29.54
			c-2.6,0-4.5-2.17-4.5-4.71c0-2.54,1.9-4.71,4.5-4.71c2.6,0,4.5,2.17,4.5,4.71C37.8,27.37,35.9,29.54,33.3,29.54z"/>
		<path class="st2" d="M19.33,24.77c0,2.51-0.55,4.44-3.37,4.44c-3.15,0-3.49-2.26-3.49-4.1V10.72l-4.04,0.89v14.08
			c0,5.35,3.73,7.4,7.34,7.4c4.71,0,7.59-3.03,7.59-6.82V10.72l-4.04,0.89V24.77z"/>
	</g>
</g>
</svg>
